<svg width="1669" height="506" viewBox="0 0 1669 506" fill="none" xmlns="http://www.w3.org/2000/svg">
<path d="M636.74 369.657C701.07 369.657 729.625 341.43 729.625 300.403C729.625 258.392 700.085 239.683 657.417 230.822L626.237 224.257C603.918 219.334 596.697 210.8 596.697 198.985C596.697 184.871 608.841 174.368 636.411 174.368C665.951 174.368 678.751 189.138 680.064 206.862H725.686C725.358 163.865 688.598 133.998 637.068 133.998C583.897 133.998 550.419 160.255 550.419 198.985C550.419 240.668 578.645 257.407 618.36 265.941L651.838 273.161C673.5 277.757 683.346 285.962 683.346 301.388C683.346 318.784 669.561 329.615 636.74 329.615C608.513 329.615 590.461 316.814 588.492 290.885H542.87C545.167 338.477 577.004 369.657 636.74 369.657ZM760.752 366.703H804.733V272.505C804.733 247.889 820.159 233.119 840.836 233.119C862.827 233.119 872.673 245.92 872.673 267.254V366.703H916.654V254.781C916.654 216.708 892.038 193.077 854.293 193.077C830.99 193.077 815.564 202.595 806.045 215.395H804.733V123.823H760.752V366.703ZM1060.38 196.031V293.511C1060.38 315.173 1051.19 328.63 1028.87 328.63C1006.22 328.63 997.031 315.173 997.031 293.511V196.031H953.05V300.403C953.05 337.164 976.682 369.657 1028.54 369.657H1028.87C1080.4 369.657 1104.36 337.164 1104.36 300.403V196.031H1060.38ZM1161.17 366.703H1205.15V233.119H1245.85V196.031H1205.15V181.589C1205.15 165.178 1214.67 158.286 1231.08 158.286C1236.33 158.286 1242.24 158.942 1247.49 159.927V122.838C1241.59 121.526 1235.02 120.541 1226.49 120.541C1189.4 120.541 1161.17 143.188 1161.17 181.589V196.031H1131.31V233.119H1161.17V366.703ZM1296.43 366.703H1340.41V233.119H1381.11V196.031H1340.41V181.589C1340.41 165.178 1349.93 158.286 1366.34 158.286C1371.6 158.286 1377.5 158.942 1382.75 159.927V122.838C1376.85 121.526 1370.28 120.541 1361.75 120.541C1324.66 120.541 1296.43 143.188 1296.43 181.589V196.031H1266.57V233.119H1296.43V366.703ZM1414.3 366.703H1458.28V123.823H1414.3V366.703ZM1568.26 369.657C1612.24 369.657 1640.14 344.384 1644.73 313.532H1601.73C1598.45 324.035 1587.95 333.225 1568.26 333.225C1542.98 333.225 1531.17 316.814 1530.84 293.511H1647.03V276.444C1647.03 229.837 1618.47 193.077 1567.6 193.077C1512.79 193.077 1485.87 233.119 1485.87 281.695C1485.87 330.928 1515.41 369.657 1568.26 369.657ZM1531.17 264.3C1532.15 244.935 1542.98 229.837 1567.6 229.837C1590.57 229.837 1601.41 244.935 1602.06 264.3H1531.17Z" fill="#0D172A"/>
<path d="M181.188 229.598L49.3659 305.698V133.118L181.188 57.0022L362.376 161.612V104.609L181.188 0L0 104.609V391.209L181.188 286.6L263.66 334.222V277.22L181.188 229.598Z" fill="#3758F9"/>
<path d="M181.188 114.787L98.6083 162.471V219.474L181.188 171.789L313.01 247.905V420.501L181.188 344.385L98.6083 392.054L56.9867 416.058L0.0308537 448.948L0 505.996L181.188 401.387L362.376 505.996V219.396L181.188 114.787Z" fill="#FFCF30"/>
</svg>
